<svg width="16" height="16" viewBox="0 0 16 16" fill="none" xmlns="http://www.w3.org/2000/svg">
<g id="Frame">
<path id="Vector" d="M7.9205 5.40493C8.31517 5.40493 8.57884 5.14062 8.57884 4.74701C8.57884 4.34893 8.31559 4.09145 7.9205 4.09145C7.5252 4.09145 7.12881 4.34895 7.12881 4.74701C7.12925 5.14082 7.52583 5.40493 7.9205 5.40493ZM4.23792 4.09143C3.84325 4.09143 3.44433 4.34893 3.44433 4.74699C3.44433 5.14059 3.84327 5.40491 4.23792 5.40491C4.63109 5.40491 4.89436 5.1406 4.89436 4.74699C4.89414 4.34891 4.63133 4.09143 4.23792 4.09143ZM15.791 9.61698C15.791 7.5357 13.8603 5.76226 11.4904 5.57773C11.4936 5.55191 11.4951 5.52502 11.4894 5.49816C11.0143 3.2827 8.63177 1.6123 5.94717 1.6123C2.91358 1.6123 0.445312 3.72773 0.445312 6.32782C0.445312 7.7228 1.15741 8.97977 2.50697 9.97091L2.03656 11.3851C2.00627 11.4771 2.0338 11.5784 2.10697 11.6422C2.15155 11.6806 2.20767 11.7006 2.26441 11.7006C2.30089 11.7006 2.3378 11.6921 2.3717 11.6752L4.13789 10.7914L4.35548 10.8356C4.89927 10.9474 5.36881 11.0442 5.94717 11.0442C6.11741 11.0442 6.58589 10.9819 6.62536 10.932C7.26216 12.5256 9.01745 13.6759 11.0827 13.6759C11.6118 13.6759 12.1473 13.5483 12.6279 13.428L13.9894 14.1723C14.0255 14.1919 14.0652 14.2022 14.1044 14.2022C14.1582 14.2022 14.2119 14.184 14.255 14.1488C14.3307 14.0874 14.3619 13.9863 14.3337 13.8937L13.986 12.7374C15.1517 11.8162 15.791 10.7142 15.791 9.61698H15.791ZM6.40263 10.4023C6.25222 10.4153 6.09969 10.4217 5.94822 10.4217C5.4375 10.4217 5.0055 10.3334 4.50588 10.2301L4.21553 10.1714C4.16561 10.1608 4.11292 10.1676 4.06705 10.1913L2.79069 10.8302L3.12242 9.83373C3.15486 9.73623 3.11922 9.62977 3.03539 9.5709C1.75305 8.67704 1.10322 7.58818 1.10322 6.33507C1.10322 4.08227 3.27645 2.24888 5.94802 2.24888C8.30961 2.24888 10.4005 3.68568 10.8321 5.59671C8.35589 5.62915 6.35228 7.36995 6.35228 9.50796C6.35228 9.81879 6.39944 10.12 6.479 10.4106C6.45491 10.4046 6.4295 10.3999 6.40264 10.4023H6.40263ZM13.4428 12.3233C13.3667 12.3807 13.3345 12.4797 13.3618 12.571L13.5775 13.2883L12.6923 12.804C12.6586 12.7854 12.6207 12.7758 12.5829 12.7758C12.5643 12.7758 12.5456 12.7782 12.5272 12.7831C12.0525 12.903 11.5612 13.0267 11.083 13.0267C8.8613 13.0267 7.05394 11.4999 7.05394 9.62341C7.05394 7.74693 8.86109 6.22074 11.083 6.22074C13.2622 6.22074 15.1037 7.77893 15.1037 9.62341C15.1037 10.5589 14.514 11.518 13.4429 12.3234L13.4428 12.3233ZM9.63162 7.90626C9.36837 7.90626 9.10512 8.17143 9.10512 8.43426C9.10512 8.69901 9.36837 8.96034 9.63162 8.96034C10.0271 8.96034 10.2885 8.69901 10.2885 8.43426C10.2885 8.17101 10.0271 7.90626 9.63162 7.90626ZM12.5242 7.90626C12.2648 7.90626 12.0015 8.17143 12.0015 8.43426C12.0015 8.69901 12.2648 8.96034 12.5242 8.96034C12.9185 8.96034 13.1845 8.69901 13.1845 8.43426C13.1845 8.17101 12.9189 7.90626 12.5242 7.90626Z" fill="#0251FF"/>
</g>
</svg>
