<svg width="16" height="16" viewBox="0 0 16 16" fill="none" xmlns="http://www.w3.org/2000/svg">
<g id="Frame">
<path id="Vector" d="M2.65234 12.0926C2.65234 9.66752 2.65234 3.90744 2.65234 3.90744C2.65234 2.86424 3.49803 2.01855 4.54123 2.01855H11.4672V10.2037C11.4672 10.2037 6.18853 10.2037 4.54123 10.2037C3.50234 10.2037 2.65234 11.0488 2.65234 12.0926Z" stroke="#595959" stroke-width="0.62963" stroke-linejoin="round"/>
<path id="Vector_2" d="M11.4672 10.204C11.4672 10.204 4.90443 10.204 4.54123 10.204C3.49803 10.204 2.65234 11.0497 2.65234 12.0929C2.65234 13.1361 3.49803 13.9818 4.54123 13.9818C5.23669 13.9818 8.59473 13.9818 13.356 13.9818V2.64844" stroke="#595959" stroke-width="0.62963" stroke-linecap="round" stroke-linejoin="round"/>
<path id="Vector_3" d="M4.85547 12.0928H11.1518" stroke="#595959" stroke-width="0.62963" stroke-linecap="round" stroke-linejoin="round"/>
</g>
</svg>
