<svg width="46" height="46" viewBox="0 0 46 46" fill="none" xmlns="http://www.w3.org/2000/svg">
<g id="&#233;&#148;&#174;&#231;&#155;&#152;">
<rect x="3" y="3" width="40" height="40" rx="20" fill="url(#paint0_linear_2548_3948)"/>
<rect x="1.5" y="1.5" width="43" height="43" rx="21.5" stroke="url(#paint1_linear_2548_3948)" stroke-opacity="0.16" stroke-width="3"/>
<path id="Union" fill-rule="evenodd" clip-rule="evenodd" d="M17 19.9609C17.8284 19.9609 18.5 19.2894 18.5 18.4609C18.5 17.6325 17.8284 16.9609 17 16.9609C16.1716 16.9609 15.5 17.6325 15.5 18.4609C15.5 19.2894 16.1716 19.9609 17 19.9609ZM17 30.3628C17 29.9486 17.3358 29.6128 17.75 29.6128H28.25C28.6642 29.6128 29 29.9486 29 30.3628C29 30.777 28.6642 31.1128 28.25 31.1128H17.75C17.3358 31.1128 17 30.777 17 30.3628ZM24.5001 18.4609C24.5001 19.2894 23.8285 19.9609 23.0001 19.9609C22.1716 19.9609 21.5 19.2894 21.5 18.4609C21.5 17.6325 22.1716 16.9609 23.0001 16.9609C23.8285 16.9609 24.5001 17.6325 24.5001 18.4609ZM29.0001 19.9609C29.8285 19.9609 30.5001 19.2894 30.5001 18.4609C30.5001 17.6325 29.8285 16.9609 29.0001 16.9609C28.1717 16.9609 27.5001 17.6325 27.5001 18.4609C27.5001 19.2894 28.1717 19.9609 29.0001 19.9609ZM18.5 23.4609C18.5 24.2894 17.8284 24.9609 17 24.9609C16.1716 24.9609 15.5 24.2894 15.5 23.4609C15.5 22.6325 16.1716 21.9609 17 21.9609C17.8284 21.9609 18.5 22.6325 18.5 23.4609ZM23.0001 24.9609C23.8285 24.9609 24.5001 24.2894 24.5001 23.4609C24.5001 22.6325 23.8285 21.9609 23.0001 21.9609C22.1716 21.9609 21.5 22.6325 21.5 23.4609C21.5 24.2894 22.1716 24.9609 23.0001 24.9609ZM30.5001 23.4609C30.5001 24.2894 29.8285 24.9609 29.0001 24.9609C28.1717 24.9609 27.5001 24.2894 27.5001 23.4609C27.5001 22.6325 28.1717 21.9609 29.0001 21.9609C29.8285 21.9609 30.5001 22.6325 30.5001 23.4609Z" fill="url(#paint2_linear_2548_3948)"/>
</g>
<defs>
<linearGradient id="paint0_linear_2548_3948" x1="23" y1="3" x2="23" y2="43" gradientUnits="userSpaceOnUse">
<stop stop-color="white"/>
<stop offset="1" stop-color="#F5F8FF"/>
</linearGradient>
<linearGradient id="paint1_linear_2548_3948" x1="23.567" y1="2.94844" x2="22.9111" y2="42.9985" gradientUnits="userSpaceOnUse">
<stop stop-color="#CBCBFF"/>
<stop offset="0.45" stop-color="#0251FF"/>
<stop offset="1" stop-color="#A9CEFF"/>
</linearGradient>
<linearGradient id="paint2_linear_2548_3948" x1="22.0001" y1="16.9609" x2="21.8527" y2="31.1128" gradientUnits="userSpaceOnUse">
<stop stop-color="#407DCF"/>
<stop offset="1" stop-color="#001B56"/>
</linearGradient>
</defs>
</svg>
