<svg width="12" height="12" viewBox="0 0 12 12" fill="none" xmlns="http://www.w3.org/2000/svg">
<g id="&#233;&#186;&#166;&#229;&#133;&#139;&#233;&#163;&#142;" clip-path="url(#clip0_2548_751)">
<path id="Vector" d="M9.30265 4.81738C9.12101 4.81738 8.97452 4.96387 8.97452 5.1455V6.58572C8.97452 7.29821 8.69562 7.96969 8.18703 8.4771C7.67962 8.98452 7.00814 9.26459 6.29565 9.26459H5.82339C5.1109 9.26459 4.43943 8.98569 3.93201 8.4771C3.4246 7.96969 3.14452 7.29821 3.14452 6.58572V5.1455C3.14452 4.96387 2.99804 4.81738 2.8164 4.81738C2.63476 4.81738 2.48828 4.96387 2.48828 5.1455V6.58572C2.48828 7.03454 2.57734 7.47047 2.75195 7.88062C2.9207 8.27671 3.16093 8.63413 3.46796 8.93999C3.77498 9.24701 4.13123 9.48724 4.52732 9.65599C4.91052 9.81888 5.31481 9.90677 5.73082 9.91849V10.8736H4.72067C4.53904 10.8736 4.39255 11.02 4.39255 11.2017C4.39255 11.3833 4.53904 11.5298 4.72067 11.5298H7.39954C7.58118 11.5298 7.72767 11.3833 7.72767 11.2017C7.72767 11.02 7.58118 10.8736 7.39954 10.8736H6.38823V9.91849C6.80424 9.90677 7.20853 9.81888 7.59173 9.65599C7.98782 9.48724 8.34524 9.24701 8.65109 8.93999C8.95812 8.63296 9.19835 8.27671 9.3671 7.88062C9.5417 7.47047 9.63077 7.03454 9.63077 6.58572V5.1455C9.63077 4.96504 9.48428 4.81738 9.30265 4.81738Z" fill="url(#paint0_linear_2548_751)"/>
<path id="Vector_2" d="M3.95039 6.28572C3.95039 7.44938 4.89725 8.39624 6.06091 8.39624C7.22457 8.39624 8.17143 7.44938 8.17143 6.28572V5.11035H3.95039V6.28572ZM8.17026 3.14983C8.17026 2.58851 7.94995 2.05882 7.55035 1.65922C7.15074 1.25962 6.62106 1.03931 6.05974 1.03931C5.49842 1.03931 4.96874 1.25962 4.56913 1.65922C4.16953 2.05882 3.94922 2.58851 3.94922 3.14983V4.45411H8.17026V3.14983Z" fill="url(#paint1_linear_2548_751)"/>
</g>
<defs>
<linearGradient id="paint0_linear_2548_751" x1="6.05952" y1="4.81738" x2="6.05952" y2="11.5298" gradientUnits="userSpaceOnUse">
<stop stop-color="#70ADFF"/>
<stop offset="1" stop-color="#001B56"/>
</linearGradient>
<linearGradient id="paint1_linear_2548_751" x1="6.06033" y1="1.03931" x2="6.06033" y2="8.39624" gradientUnits="userSpaceOnUse">
<stop stop-color="#70ADFF"/>
<stop offset="1" stop-color="#001B56"/>
</linearGradient>
<clipPath id="clip0_2548_751">
<rect width="11.9998" height="11.9998" fill="white"/>
</clipPath>
</defs>
</svg>
