<svg width="24" height="24" viewBox="0 0 24 24" fill="none" xmlns="http://www.w3.org/2000/svg">
<g id="Frame">
<path id="Union" fill-rule="evenodd" clip-rule="evenodd" d="M8.5 4C8.5 3.44772 8.05228 3 7.5 3C6.94772 3 6.5 3.44772 6.5 4L6.5 20C6.5 20.5523 6.94772 21 7.5 21C8.05229 21 8.5 20.5523 8.5 20L8.5 4ZM16.5 4.5C17.0523 4.5 17.5 4.94771 17.5 5.5V18.5C17.5 19.0523 17.0523 19.5 16.5 19.5C15.9477 19.5 15.5 19.0523 15.5 18.5V5.5C15.5 4.94771 15.9477 4.5 16.5 4.5ZM12 7.5C12.5523 7.5 13 7.94771 13 8.5V15.5C13 16.0523 12.5523 16.5 12 16.5C11.4477 16.5 11 16.0523 11 15.5V8.5C11 7.94771 11.4477 7.5 12 7.5ZM4 8.5C4 7.94771 3.55228 7.5 3 7.5C2.44772 7.5 2 7.94771 2 8.5V15.5C2 16.0523 2.44772 16.5 3 16.5C3.55228 16.5 4 16.0523 4 15.5V8.5ZM21 8C21.5523 8 22 8.44771 22 9V15C22 15.5523 21.5523 16 21 16C20.4477 16 20 15.5523 20 15V9C20 8.44771 20.4477 8 21 8Z" fill="url(#paint0_linear_2629_1181)"/>
</g>
<defs>
<linearGradient id="paint0_linear_2629_1181" x1="-0.5" y1="12.0001" x2="25" y2="12.0001" gradientUnits="userSpaceOnUse">
<stop offset="0.169297" stop-color="#CCCCFF"/>
<stop offset="0.476664" stop-color="#0553FF"/>
<stop offset="0.711993" stop-color="#5A8DFF"/>
<stop offset="1" stop-color="#DCF2FF"/>
</linearGradient>
</defs>
</svg>
