<svg width="24" height="24" viewBox="0 0 24 24" fill="none" xmlns="http://www.w3.org/2000/svg">
<g id="Send">
<path id="Vector" d="M9.21868 14.1111L14.9228 9.34531L7.38145 12.7066L3.23483 9.53656C3.14375 9.46698 3.0746 9.37267 3.03562 9.26488C2.99664 9.15708 2.98948 9.04036 3.01499 8.92861C3.0405 8.81687 3.09761 8.71481 3.1795 8.63461C3.2614 8.55442 3.36463 8.49946 3.47688 8.4763L20.2821 5.01222C20.3805 4.992 20.4825 4.99693 20.5785 5.02655C20.6745 5.05617 20.7615 5.10951 20.8315 5.18166C20.9014 5.2538 20.952 5.34242 20.9786 5.43931C21.0053 5.5362 21.007 5.63824 20.9838 5.73599L17.6906 19.5302C17.6676 19.6271 17.6206 19.7167 17.5541 19.7908C17.4876 19.865 17.4036 19.9213 17.3098 19.9548C17.216 19.9882 17.1153 19.9976 17.0169 19.9823C16.9185 19.9669 16.8255 19.9271 16.7463 19.8667L9.21868 14.1111ZM7.65279 18.8745L8.47458 15.0279L11.696 17.5148L8.55646 19.5039C8.45703 19.5669 8.34122 19.5991 8.22355 19.5965C8.10587 19.5939 7.99158 19.5567 7.895 19.4894C7.79842 19.4221 7.72386 19.3278 7.68067 19.2183C7.63747 19.1088 7.62757 18.989 7.65219 18.8739L7.65279 18.8745Z" fill="#D9D9D9"/>
</g>
</svg>
