<svg width="16" height="16" viewBox="0 0 16 16" fill="none" xmlns="http://www.w3.org/2000/svg">
<g id="Frame">
<path id="Union" fill-rule="evenodd" clip-rule="evenodd" d="M2.73828 2.42858C2.73828 1.91572 3.15405 1.5 3.6669 1.5H12.3341C12.8469 1.5 13.2627 1.91573 13.2627 2.42858V5.52382C13.2627 5.69477 13.1241 5.83335 12.9531 5.83335C12.7822 5.83335 12.6436 5.69477 12.6436 5.52382V2.42858C12.6436 2.25765 12.505 2.11907 12.3341 2.11907H3.6669C3.49592 2.11907 3.35735 2.25766 3.35735 2.42858V13.5714C3.35735 13.7424 3.49592 13.881 3.6669 13.881H5.52415C5.6951 13.881 5.83368 14.0195 5.83368 14.1905C5.83368 14.3614 5.6951 14.5 5.52415 14.5H3.6669C3.15406 14.5 2.73828 14.0843 2.73828 13.5714V2.42858ZM12.9522 10.4761C13.1232 10.4761 13.2617 10.6147 13.2617 10.7856V13.5713C13.2617 14.0842 12.846 14.4999 12.3332 14.4999H10.3213C10.1503 14.4999 10.0117 14.3613 10.0117 14.1904C10.0117 14.0194 10.1503 13.8808 10.3213 13.8808H12.3332C12.5041 13.8808 12.6427 13.7423 12.6427 13.5713V10.7856C12.6427 10.6147 12.7813 10.4761 12.9522 10.4761ZM5.52828 5.21387C5.35733 5.21387 5.21875 5.35245 5.21875 5.5234C5.21875 5.69435 5.35733 5.83293 5.52828 5.83293H9.86162C10.0326 5.83293 10.1711 5.69435 10.1711 5.5234C10.1711 5.35245 10.0326 5.21387 9.86162 5.21387H5.52828ZM13.149 7.44981C13.2819 7.55737 13.3024 7.75228 13.1948 7.88515L7.93293 14.3851C7.82537 14.518 7.63046 14.5385 7.49759 14.431C7.36472 14.3234 7.3442 14.1285 7.45176 13.9956L12.7137 7.49563C12.8212 7.36276 13.0161 7.34225 13.149 7.44981ZM5.52828 7.69043C5.35733 7.69043 5.21875 7.82901 5.21875 7.99996C5.21875 8.17091 5.35733 8.30949 5.52828 8.30949H8.00447C8.17542 8.30949 8.31401 8.17091 8.31401 7.99996C8.31401 7.82901 8.17542 7.69043 8.00447 7.69043H5.52828Z" fill="#595959"/>
</g>
</svg>
