<svg width="12" height="12" viewBox="0 0 12 12" fill="none" xmlns="http://www.w3.org/2000/svg">
<g id="Frame">
<path id="Vector" d="M6 10.8784C3.31406 10.8784 1.13672 8.70107 1.13672 6.01514C1.13672 3.3292 3.31406 1.15186 6 1.15186C8.68594 1.15186 10.8633 3.3292 10.8633 6.01514C10.8633 8.70107 8.68594 10.8784 6 10.8784ZM6.00469 9.97021C8.18672 9.97021 9.95625 8.20068 9.95625 6.01865C9.95625 3.83662 8.18672 2.06709 6.00469 2.06709C3.82266 2.06709 2.05312 3.83662 2.05312 6.01865C2.05312 8.20068 3.82148 9.97021 6.00469 9.97021ZM4.48008 4.19053H7.51992C7.6875 4.19053 7.82344 4.32646 7.82344 4.49404V7.53506C7.82344 7.70264 7.6875 7.83857 7.51992 7.83857H4.48008C4.3125 7.83857 4.17656 7.70264 4.17656 7.53506V4.49521C4.17656 4.32646 4.3125 4.19053 4.48008 4.19053Z" fill="#E60023"/>
</g>
</svg>
