<svg width="14" height="14" viewBox="0 0 14 14" fill="none" xmlns="http://www.w3.org/2000/svg">
<g id="1">
<g id="Union">
<path fill-rule="evenodd" clip-rule="evenodd" d="M8.03419 3.32494V5.42494H11.1842C11.4922 5.42144 11.7863 5.55342 11.9884 5.78588C12.1906 6.01834 12.2804 6.32785 12.2342 6.63244L11.5097 11.3574C11.4312 11.8751 10.9833 12.2558 10.4597 12.2499L4.97656 12.2499V6.47494L6.45919 1.74994C7.32905 1.74994 8.03419 2.45507 8.03419 3.32494ZM2.95558 12.2498L3.31641 12.2498V6.41646H2.95558C2.34055 6.40559 1.81479 6.91524 1.73234 7.5248V11.1998C1.81479 11.8094 2.34055 12.2607 2.95558 12.2498Z" fill="#8C8C8C"/>
<path d="M8.03419 5.42494H7.45085C7.45085 5.74711 7.71202 6.00827 8.03419 6.00827V5.42494ZM11.1842 5.42494V6.00831L11.1908 6.00824L11.1842 5.42494ZM11.9884 5.78588L11.5482 6.16866L11.5482 6.16866L11.9884 5.78588ZM12.2342 6.63244L12.8108 6.72085L12.8109 6.71997L12.2342 6.63244ZM11.5097 11.3574L10.9331 11.269L10.933 11.27L11.5097 11.3574ZM10.4597 12.2499L10.4663 11.6666H10.4597L10.4597 12.2499ZM4.97656 12.2499H4.39323C4.39323 12.4046 4.45469 12.553 4.56408 12.6624C4.67348 12.7718 4.82185 12.8333 4.97656 12.8333V12.2499ZM4.97656 6.47494L4.41999 6.3003C4.40225 6.35682 4.39323 6.41571 4.39323 6.47494H4.97656ZM6.45919 1.74994V1.16661C6.2043 1.16661 5.97892 1.3321 5.90261 1.5753L6.45919 1.74994ZM3.31641 12.2498V12.8331C3.47112 12.8331 3.61949 12.7717 3.72889 12.6623C3.83828 12.5529 3.89974 12.4045 3.89974 12.2498H3.31641ZM2.95558 12.2498V11.6664L2.94527 11.6666L2.95558 12.2498ZM3.31641 6.41646H3.89974C3.89974 6.0943 3.63857 5.83313 3.31641 5.83313V6.41646ZM2.95558 6.41646L2.94527 6.9998H2.95558V6.41646ZM1.73234 7.5248L1.15427 7.4466C1.15076 7.47252 1.149 7.49864 1.149 7.5248H1.73234ZM1.73234 11.1998H1.149C1.149 11.226 1.15076 11.2521 1.15427 11.278L1.73234 11.1998ZM8.61752 5.42494V3.32494H7.45085V5.42494H8.61752ZM11.1842 4.84161H8.03419V6.00827H11.1842V4.84161ZM12.4286 5.4031C12.1142 5.04151 11.6568 4.8362 11.1776 4.84164L11.1908 6.00824C11.3277 6.00668 11.4584 6.06533 11.5482 6.16866L12.4286 5.4031ZM12.8109 6.71997C12.8828 6.24619 12.7431 5.76472 12.4286 5.4031L11.5482 6.16866C11.6381 6.27195 11.678 6.40951 11.6575 6.54491L12.8109 6.71997ZM12.0863 11.4458L12.8108 6.72085L11.6576 6.54403L10.9331 11.269L12.0863 11.4458ZM10.4531 12.8332C11.2675 12.8424 11.9643 12.2502 12.0864 11.4449L10.933 11.27C10.8981 11.5 10.699 11.6693 10.4663 11.6666L10.4531 12.8332ZM4.97656 12.8333L10.4597 12.8333L10.4597 11.6666L4.97656 11.6666V12.8333ZM4.39323 6.47494V12.2499H5.5599V6.47494H4.39323ZM5.90261 1.5753L4.41999 6.3003L5.53314 6.64959L7.01576 1.92459L5.90261 1.5753ZM8.61752 3.32494C8.61752 2.13291 7.65122 1.16661 6.45919 1.16661V2.33327C7.00689 2.33327 7.45085 2.77724 7.45085 3.32494H8.61752ZM3.31641 11.6665H2.95558V12.8331H3.31641V11.6665ZM2.73307 6.41646V12.2498H3.89974V6.41646H2.73307ZM2.95558 6.9998H3.31641V5.83313H2.95558V6.9998ZM2.3104 7.60299C2.35849 7.2475 2.66394 6.99473 2.94527 6.99971L2.9659 5.83322C2.01716 5.81644 1.27109 6.58299 1.15427 7.4466L2.3104 7.60299ZM2.31567 11.1998V7.5248H1.149V11.1998H2.31567ZM2.94527 11.6666C2.62606 11.6722 2.3532 11.438 2.3104 11.1216L1.15427 11.278C1.27638 12.1808 2.05503 12.8492 2.9659 12.833L2.94527 11.6666Z" fill="#8C8C8C"/>
</g>
</g>
</svg>
